<mxfile host="app.diagrams.net" agent="Mozilla/5.0 (Windows NT 10.0; Win64; x64) AppleWebKit/537.36 (KHTML, like Gecko) Chrome/130.0.0.0 Safari/537.36" version="24.8.4">
  <diagram name="Page-1" id="h-IbNw2euw5WCAHQoLzq">
    <mxGraphModel dx="2074" dy="1106" grid="1" gridSize="10" guides="1" tooltips="1" connect="1" arrows="1" fold="1" page="1" pageScale="1" pageWidth="850" pageHeight="1100" math="0" shadow="0">
      <root>
        <mxCell id="0" />
        <mxCell id="1" parent="0" />
        <mxCell id="zRvJGApe3J_LtBxNdUzp-1" value="User" style="shape=umlActor;verticalLabelPosition=bottom;verticalAlign=top;html=1;outlineConnect=0;" parent="1" vertex="1">
          <mxGeometry x="120" y="250" width="30" height="60" as="geometry" />
        </mxCell>
        <mxCell id="zRvJGApe3J_LtBxNdUzp-2" value="&lt;b&gt;Registration/Login&lt;/b&gt;" style="ellipse;whiteSpace=wrap;html=1;" parent="1" vertex="1">
          <mxGeometry x="230" y="390" width="120" height="80" as="geometry" />
        </mxCell>
        <mxCell id="zRvJGApe3J_LtBxNdUzp-3" value="View list of members" style="ellipse;whiteSpace=wrap;html=1;" parent="1" vertex="1">
          <mxGeometry x="240" y="500" width="120" height="80" as="geometry" />
        </mxCell>
        <mxCell id="zRvJGApe3J_LtBxNdUzp-4" value="Administrator" style="shape=umlActor;verticalLabelPosition=bottom;verticalAlign=top;html=1;outlineConnect=0;" parent="1" vertex="1">
          <mxGeometry x="120" y="560" width="30" height="60" as="geometry" />
        </mxCell>
        <mxCell id="zRvJGApe3J_LtBxNdUzp-5" value="Authentication&lt;div&gt;&amp;lt;&amp;lt;Service&amp;gt;&amp;gt;&lt;/div&gt;" style="shape=umlActor;verticalLabelPosition=bottom;verticalAlign=top;html=1;outlineConnect=0;" parent="1" vertex="1">
          <mxGeometry x="530" y="400" width="30" height="60" as="geometry" />
        </mxCell>
        <mxCell id="zRvJGApe3J_LtBxNdUzp-6" value="&lt;b&gt;View Profile&lt;/b&gt;" style="ellipse;whiteSpace=wrap;html=1;" parent="1" vertex="1">
          <mxGeometry x="230" y="150" width="120" height="80" as="geometry" />
        </mxCell>
        <mxCell id="zRvJGApe3J_LtBxNdUzp-7" value="Add/Edit Workouts" style="ellipse;whiteSpace=wrap;html=1;" parent="1" vertex="1">
          <mxGeometry x="420" y="150" width="120" height="80" as="geometry" />
        </mxCell>
        <mxCell id="zRvJGApe3J_LtBxNdUzp-8" value="Add/Edit Exercises" style="ellipse;whiteSpace=wrap;html=1;" parent="1" vertex="1">
          <mxGeometry x="610" y="150" width="120" height="80" as="geometry" />
        </mxCell>
        <mxCell id="zRvJGApe3J_LtBxNdUzp-9" value="Track progress" style="ellipse;whiteSpace=wrap;html=1;" parent="1" vertex="1">
          <mxGeometry x="230" y="280" width="120" height="80" as="geometry" />
        </mxCell>
        <mxCell id="zRvJGApe3J_LtBxNdUzp-10" value="View Workout Calendar" style="ellipse;whiteSpace=wrap;html=1;" parent="1" vertex="1">
          <mxGeometry x="230" y="40" width="120" height="80" as="geometry" />
        </mxCell>
        <mxCell id="zRvJGApe3J_LtBxNdUzp-11" value="Modify information of list members" style="ellipse;whiteSpace=wrap;html=1;" parent="1" vertex="1">
          <mxGeometry x="420" y="500" width="120" height="80" as="geometry" />
        </mxCell>
        <mxCell id="zRvJGApe3J_LtBxNdUzp-12" value="&lt;font style=&quot;font-size: 10px;&quot;&gt;View charts about members(e.g., workout performance, member engagement)&lt;/font&gt;" style="ellipse;whiteSpace=wrap;html=1;" parent="1" vertex="1">
          <mxGeometry x="240" y="620" width="120" height="80" as="geometry" />
        </mxCell>
        <mxCell id="zRvJGApe3J_LtBxNdUzp-14" value="" style="endArrow=none;html=1;edgeStyle=orthogonalEdgeStyle;rounded=0;entryX=0;entryY=0.5;entryDx=0;entryDy=0;" parent="1" source="zRvJGApe3J_LtBxNdUzp-1" target="zRvJGApe3J_LtBxNdUzp-6" edge="1">
          <mxGeometry relative="1" as="geometry">
            <mxPoint x="310" y="400" as="sourcePoint" />
            <mxPoint x="480" y="420" as="targetPoint" />
          </mxGeometry>
        </mxCell>
        <mxCell id="zRvJGApe3J_LtBxNdUzp-17" value="" style="endArrow=none;html=1;edgeStyle=orthogonalEdgeStyle;rounded=0;entryX=0;entryY=0.5;entryDx=0;entryDy=0;" parent="1" source="zRvJGApe3J_LtBxNdUzp-1" target="zRvJGApe3J_LtBxNdUzp-2" edge="1">
          <mxGeometry relative="1" as="geometry">
            <mxPoint x="160" y="290" as="sourcePoint" />
            <mxPoint x="240" y="200" as="targetPoint" />
          </mxGeometry>
        </mxCell>
        <mxCell id="zRvJGApe3J_LtBxNdUzp-18" value="" style="endArrow=none;html=1;edgeStyle=orthogonalEdgeStyle;rounded=0;exitX=0.5;exitY=0.5;exitDx=0;exitDy=0;exitPerimeter=0;" parent="1" source="zRvJGApe3J_LtBxNdUzp-4" target="zRvJGApe3J_LtBxNdUzp-3" edge="1">
          <mxGeometry relative="1" as="geometry">
            <mxPoint x="150" y="550" as="sourcePoint" />
            <mxPoint x="230" y="700" as="targetPoint" />
          </mxGeometry>
        </mxCell>
        <mxCell id="zRvJGApe3J_LtBxNdUzp-21" value="" style="endArrow=none;html=1;edgeStyle=orthogonalEdgeStyle;rounded=0;" parent="1" source="zRvJGApe3J_LtBxNdUzp-2" target="zRvJGApe3J_LtBxNdUzp-5" edge="1">
          <mxGeometry relative="1" as="geometry">
            <mxPoint x="160" y="290" as="sourcePoint" />
            <mxPoint x="240" y="440" as="targetPoint" />
          </mxGeometry>
        </mxCell>
        <mxCell id="zRvJGApe3J_LtBxNdUzp-22" value="" style="endArrow=none;html=1;edgeStyle=orthogonalEdgeStyle;rounded=0;exitX=0.5;exitY=0;exitDx=0;exitDy=0;exitPerimeter=0;" parent="1" source="zRvJGApe3J_LtBxNdUzp-4" target="zRvJGApe3J_LtBxNdUzp-2" edge="1">
          <mxGeometry relative="1" as="geometry">
            <mxPoint x="65" y="520.0344827586207" as="sourcePoint" />
            <mxPoint x="205" y="450" as="targetPoint" />
            <Array as="points">
              <mxPoint x="135" y="490" />
              <mxPoint x="290" y="490" />
            </Array>
          </mxGeometry>
        </mxCell>
        <mxCell id="zRvJGApe3J_LtBxNdUzp-25" value="" style="endArrow=none;html=1;edgeStyle=orthogonalEdgeStyle;rounded=0;entryX=0;entryY=0.5;entryDx=0;entryDy=0;exitX=0.5;exitY=0.5;exitDx=0;exitDy=0;exitPerimeter=0;" parent="1" source="zRvJGApe3J_LtBxNdUzp-4" target="zRvJGApe3J_LtBxNdUzp-12" edge="1">
          <mxGeometry relative="1" as="geometry">
            <mxPoint x="160" y="560" as="sourcePoint" />
            <mxPoint x="240" y="560" as="targetPoint" />
          </mxGeometry>
        </mxCell>
        <mxCell id="zRvJGApe3J_LtBxNdUzp-26" value="&amp;lt;&amp;lt;include&amp;gt;&amp;gt;" style="endArrow=open;endSize=12;dashed=1;html=1;rounded=0;exitX=0.5;exitY=0;exitDx=0;exitDy=0;entryX=0.5;entryY=1;entryDx=0;entryDy=0;" parent="1" source="zRvJGApe3J_LtBxNdUzp-6" target="zRvJGApe3J_LtBxNdUzp-10" edge="1">
          <mxGeometry x="-0.3333" y="-40" width="160" relative="1" as="geometry">
            <mxPoint x="310" y="400" as="sourcePoint" />
            <mxPoint x="470" y="400" as="targetPoint" />
            <mxPoint as="offset" />
          </mxGeometry>
        </mxCell>
        <mxCell id="zRvJGApe3J_LtBxNdUzp-32" value="&amp;lt;&amp;lt;extends&amp;gt;&amp;gt;" style="endArrow=open;endSize=12;dashed=1;html=1;rounded=0;exitX=1;exitY=0.5;exitDx=0;exitDy=0;entryX=0;entryY=0.5;entryDx=0;entryDy=0;" parent="1" source="zRvJGApe3J_LtBxNdUzp-3" target="zRvJGApe3J_LtBxNdUzp-11" edge="1">
          <mxGeometry y="-20" width="160" relative="1" as="geometry">
            <mxPoint x="460" y="290" as="sourcePoint" />
            <mxPoint x="460" y="320" as="targetPoint" />
            <mxPoint as="offset" />
          </mxGeometry>
        </mxCell>
        <mxCell id="zRvJGApe3J_LtBxNdUzp-33" value="Record Workout" style="ellipse;whiteSpace=wrap;html=1;" parent="1" vertex="1">
          <mxGeometry x="420" y="280" width="120" height="80" as="geometry" />
        </mxCell>
        <mxCell id="zRvJGApe3J_LtBxNdUzp-34" value="&amp;lt;&amp;lt;include&amp;gt;&amp;gt;" style="endArrow=open;endSize=12;dashed=1;html=1;rounded=0;exitX=0.5;exitY=1;exitDx=0;exitDy=0;entryX=0.5;entryY=0;entryDx=0;entryDy=0;" parent="1" source="zRvJGApe3J_LtBxNdUzp-6" target="zRvJGApe3J_LtBxNdUzp-9" edge="1">
          <mxGeometry x="-0.5" y="30" width="160" relative="1" as="geometry">
            <mxPoint x="300" y="160" as="sourcePoint" />
            <mxPoint x="300" y="130" as="targetPoint" />
            <mxPoint as="offset" />
          </mxGeometry>
        </mxCell>
        <mxCell id="zRvJGApe3J_LtBxNdUzp-35" value="&amp;lt;&amp;lt;extends&amp;gt;&amp;gt;" style="endArrow=open;endSize=12;dashed=1;html=1;rounded=0;exitX=1;exitY=0.5;exitDx=0;exitDy=0;entryX=0;entryY=0.5;entryDx=0;entryDy=0;" parent="1" source="zRvJGApe3J_LtBxNdUzp-9" target="zRvJGApe3J_LtBxNdUzp-33" edge="1">
          <mxGeometry x="-0.2069" y="-20" width="160" relative="1" as="geometry">
            <mxPoint x="310" y="170" as="sourcePoint" />
            <mxPoint x="310" y="140" as="targetPoint" />
            <mxPoint as="offset" />
          </mxGeometry>
        </mxCell>
        <mxCell id="zRvJGApe3J_LtBxNdUzp-37" value="&amp;lt;&amp;lt;include&amp;gt;&amp;gt;" style="endArrow=open;endSize=12;dashed=1;html=1;rounded=0;exitX=0.5;exitY=0;exitDx=0;exitDy=0;entryX=0.5;entryY=1;entryDx=0;entryDy=0;" parent="1" source="zRvJGApe3J_LtBxNdUzp-33" target="zRvJGApe3J_LtBxNdUzp-7" edge="1">
          <mxGeometry x="-0.1429" y="-30" width="160" relative="1" as="geometry">
            <mxPoint x="320" y="180" as="sourcePoint" />
            <mxPoint x="320" y="150" as="targetPoint" />
            <mxPoint as="offset" />
          </mxGeometry>
        </mxCell>
        <mxCell id="zRvJGApe3J_LtBxNdUzp-38" value="&amp;lt;&amp;lt;extends&amp;gt;&amp;gt;" style="endArrow=open;endSize=12;dashed=1;html=1;rounded=0;entryX=0;entryY=0.5;entryDx=0;entryDy=0;" parent="1" target="zRvJGApe3J_LtBxNdUzp-8" edge="1">
          <mxGeometry x="-0.194" y="-20" width="160" relative="1" as="geometry">
            <mxPoint x="543" y="190" as="sourcePoint" />
            <mxPoint x="490" y="240" as="targetPoint" />
            <mxPoint as="offset" />
          </mxGeometry>
        </mxCell>
      </root>
    </mxGraphModel>
  </diagram>
</mxfile>
